<?xml version="1.0" encoding="UTF-8"?>
<svg version="1.1" xmlns="http://www.w3.org/2000/svg" width="688" height="187">
<path d="M0 0 C1.00289062 -0.01224609 2.00578125 -0.02449219 3.0390625 -0.03710938 C12.36909416 -0.0554275 18.9359856 0.8030965 25.92578125 7.3671875 C27.88786541 9.46909834 29.36983788 11.59872813 30.625 14.1875 C31.07875 12.95 31.5325 11.7125 32 10.4375 C33.06131605 7.54300168 34.23363728 4.97022544 35.625 2.1875 C42.885 2.1875 50.145 2.1875 57.625 2.1875 C62.125 11.1875 62.125 11.1875 62.234375 17.75 C62.25091125 18.42675781 62.26744751 19.10351562 62.28448486 19.80078125 C62.33247367 21.92978421 62.35422277 24.058076 62.375 26.1875 C62.40320128 27.6445661 62.43313444 29.10159977 62.46484375 30.55859375 C62.53821509 34.10141061 62.58808952 37.64409381 62.625 41.1875 C65.595 41.6825 65.595 41.6825 68.625 42.1875 C68.60405273 41.3310791 68.58310547 40.4746582 68.56152344 39.59228516 C68.49272799 36.36804291 68.44290174 33.14417881 68.40527344 29.91943359 C68.38534658 28.53258844 68.3581944 27.14582518 68.32324219 25.75927734 C68.27387192 23.74816513 68.25184432 21.73817701 68.234375 19.7265625 C68.21342773 18.52209473 68.19248047 17.31762695 68.17089844 16.07666016 C68.625 12.1875 68.625 12.1875 72.625 2.1875 C79.885 2.1875 87.145 2.1875 94.625 2.1875 C94.625 3.1775 94.625 4.1675 94.625 5.1875 C95.285 5.1875 95.945 5.1875 96.625 5.1875 C98.19523795 7.98172668 98.87736205 10.00285561 98.89915466 13.20347595 C98.90912979 13.99267929 98.91910492 14.78188263 98.92938232 15.59500122 C98.930047 16.45173431 98.93071167 17.30846741 98.93139648 18.19116211 C98.93972 19.10055038 98.94804352 20.00993866 98.95661926 20.94688416 C98.98071436 23.95291422 98.9894901 26.95872736 98.99609375 29.96484375 C99.00505928 32.05465256 99.01418111 34.14446071 99.02345276 36.23426819 C99.03994316 40.61477214 99.04764318 44.99519965 99.05053711 49.37573242 C99.05592598 54.98941437 99.09362703 60.60237847 99.13928127 66.21585751 C99.16901652 70.53185149 99.17625988 74.84767171 99.17726326 79.16375923 C99.1814713 81.23343766 99.19392887 83.30311635 99.21478081 85.37269402 C99.2416262 88.2671489 99.23689048 91.15992771 99.22436523 94.05444336 C99.24661667 95.33650665 99.24661667 95.33650665 99.26931763 96.64447021 C99.21547656 101.01203859 99.03567659 102.67088563 96.22425842 106.20753479 C91.11977907 110.09583287 84.83492664 109.70095727 78.625 109.1875 C75.6635781 108.58639202 74.2801907 107.86731452 71.625 106.1875 C67.70394344 99.64621134 68.07429615 92.70343577 67.9375 85.25 C67.90333984 83.99380859 67.86917969 82.73761719 67.83398438 81.44335938 C67.75186886 78.35816214 67.68259701 75.27323616 67.625 72.1875 C65.15 72.6825 65.15 72.6825 62.625 73.1875 C62.61041748 74.00951904 62.59583496 74.83153809 62.58081055 75.6784668 C62.50623667 79.41111323 62.40960488 83.14287459 62.3125 86.875 C62.27866211 88.81536133 62.27866211 88.81536133 62.24414062 90.79492188 C62.20869141 92.04208984 62.17324219 93.28925781 62.13671875 94.57421875 C62.11053467 95.72108154 62.08435059 96.86794434 62.05737305 98.04956055 C61.44956992 102.46068056 59.73576341 105.07673659 56.625 108.1875 C49.79179626 110.32287617 41.14751767 109.98286471 34.625 107.1875 C32.34278179 104.29669026 31.45133815 101.71821754 30.625 98.1875 C29.944375 99.26 29.26375 100.3325 28.5625 101.4375 C25.06996525 106.33895501 20.5852883 109.05953576 14.625 110.1875 C9.92038523 110.4690623 5.21211538 110.4650782 0.5 110.5 C-1.42199219 110.54350586 -1.42199219 110.54350586 -3.3828125 110.58789062 C-11.47892124 110.64180938 -19.73710029 110.38909809 -26.05151367 104.66870117 C-27.79250443 102.65109008 -29.18338455 100.5707309 -30.375 98.1875 C-30.74625 99.8271875 -30.74625 99.8271875 -31.125 101.5 C-32.41744598 105.31271564 -32.88759934 106.39397966 -36.375 108.1875 C-42.60504009 109.78810873 -49.07899507 109.41119994 -55.46679688 109.42773438 C-57.73604998 109.43744033 -60.00439647 109.46849921 -62.2734375 109.5 C-63.73176551 109.50653141 -65.19009993 109.51178134 -66.6484375 109.515625 C-67.96247559 109.5249707 -69.27651367 109.53431641 -70.63037109 109.54394531 C-74.83900026 109.14333255 -77.68681685 108.24991538 -81.375 106.1875 C-84.48280354 102.16928253 -84.76352988 99.01738779 -84.80737305 94.01049805 C-84.82266052 92.95601723 -84.82266052 92.95601723 -84.83825684 91.88023376 C-84.86831367 89.56981359 -84.8776412 87.2598085 -84.88671875 84.94921875 C-84.90357093 83.3420932 -84.9217219 81.73498079 -84.94111633 80.12788391 C-84.98856421 75.9078685 -85.01840713 71.68790637 -85.04455566 67.4677124 C-85.07438759 63.15740438 -85.12090886 58.84727982 -85.16601562 54.53710938 C-85.2519894 46.08732983 -85.31936086 37.63753348 -85.375 29.1875 C-88.345 29.8475 -91.315 30.5075 -94.375 31.1875 C-94.38308685 32.01133682 -94.39117371 32.83517365 -94.39950562 33.68397522 C-94.47760744 41.46677201 -94.56494459 49.24938552 -94.66252708 57.03196049 C-94.71236694 61.03258391 -94.75869753 65.03318249 -94.796875 69.03393555 C-94.83388402 72.89847816 -94.88028522 76.76280655 -94.93306351 80.62716484 C-94.95152482 82.09782573 -94.96666294 83.5685324 -94.97834396 85.03926277 C-94.99534903 87.10720652 -95.02441574 89.17466843 -95.05615234 91.24243164 C-95.06947601 92.41713516 -95.08279968 93.59183868 -95.0965271 94.80213928 C-95.46853369 99.32457753 -95.95200683 103.7154381 -99.1875 107.0625 C-105.34644214 110.22995596 -112.6233583 109.72007581 -119.25 108.4375 C-122.6345349 107.08368604 -123.76209742 106.41330516 -125.375 103.1875 C-126.25151959 98.91183098 -126.52187544 94.80621743 -126.58032227 90.44775391 C-126.59022186 89.80314209 -126.60012146 89.15853027 -126.61032104 88.49438477 C-126.6416634 86.38431346 -126.66658435 84.27421971 -126.69140625 82.1640625 C-126.7119994 80.69289599 -126.73299646 79.22173508 -126.75437927 77.75057983 C-126.80935632 73.89390626 -126.85887218 70.03718146 -126.90722656 66.18041992 C-126.95762045 62.23872361 -127.01321279 58.29710093 -127.06835938 54.35546875 C-127.17564253 46.632875 -127.27715269 38.91021968 -127.375 31.1875 C-128.30602539 30.99595337 -128.30602539 30.99595337 -129.25585938 30.80053711 C-130.47499023 30.5415564 -130.47499023 30.5415564 -131.71875 30.27734375 C-132.52505859 30.108396 -133.33136719 29.93944824 -134.16210938 29.76538086 C-136.81263442 29.07321484 -138.4745227 28.16716385 -140.375 26.1875 C-141.50913764 22.78508708 -141.614416 20.02246256 -141.6875 16.4375 C-141.72488281 15.24640625 -141.76226562 14.0553125 -141.80078125 12.828125 C-141.375 9.1875 -141.375 9.1875 -137.375 2.1875 C-119.885 2.1875 -102.395 2.1875 -84.375 2.1875 C-83.88 3.6725 -83.88 3.6725 -83.375 5.1875 C-82.715 5.1875 -82.055 5.1875 -81.375 5.1875 C-81.045 4.1975 -80.715 3.2075 -80.375 2.1875 C-65.525 2.1875 -50.675 2.1875 -35.375 2.1875 C-30.875 10.0625 -30.875 10.0625 -30.375 13.1875 C-29.900625 12.32125 -29.42625 11.455 -28.9375 10.5625 C-25.67289947 5.6714081 -20.49122067 1.98071981 -14.796875 0.53125 C-9.86079451 0.03538803 -4.95807304 0.00316204 0 0 Z M-0.375 25.1875 C-2.61286227 27.00321736 -2.61286227 27.00321736 -2.61550903 29.59194946 C-2.61106781 30.60010712 -2.60662659 31.60826477 -2.60205078 32.64697266 C-2.60189972 33.78800446 -2.60174866 34.92903625 -2.60159302 36.10464478 C-2.59127045 37.34112762 -2.58094788 38.57761047 -2.5703125 39.8515625 C-2.5674826 41.11390717 -2.56465271 42.37625183 -2.56173706 43.67684937 C-2.55242131 47.03396944 -2.53444835 50.39081912 -2.5123291 53.74786377 C-2.4918755 57.17303122 -2.4827364 60.59822659 -2.47265625 64.0234375 C-2.45056458 70.74486671 -2.41706377 77.46616773 -2.375 84.1875 C-1.055 84.8475 0.265 85.5075 1.625 86.1875 C4.01593152 83.79656848 3.88352924 83.07736054 4.0625 79.8125 C4.39178022 76.00748409 5.05241005 74.09564516 7.625 71.1875 C7.625 70.1975 7.625 69.2075 7.625 68.1875 C14.555 68.1875 21.485 68.1875 28.625 68.1875 C28.955 69.5075 29.285 70.8275 29.625 72.1875 C30.615 72.6825 30.615 72.6825 31.625 73.1875 C31.625 60.6475 31.625 48.1075 31.625 35.1875 C29.975 36.1775 28.325 37.1675 26.625 38.1875 C23.79864562 38.7667814 21.00528511 38.69744917 18.125 38.6875 C17.00544922 38.73003906 17.00544922 38.73003906 15.86328125 38.7734375 C11.69177544 38.78820389 10.06988283 38.53260699 6.6640625 35.890625 C4.3043662 32.76244523 3.63487179 29.93845235 2.625 26.1875 C1.635 25.8575 0.645 25.5275 -0.375 25.1875 Z M-35.5234375 26.65625 C-39.74339581 28.92230981 -43.70353694 28.65189918 -48.4140625 28.78125 C-51.33821431 28.95892463 -51.33821431 28.95892463 -53.25390625 30.46484375 C-55.32391589 33.64559027 -54.66935293 36.47865314 -54.375 40.1875 C-52.40964283 42.59872368 -52.40964283 42.59872368 -48.6796875 42.3828125 C-47.20299892 42.369509 -45.72637642 42.34564835 -44.25 42.3125 C-43.11884766 42.29896484 -43.11884766 42.29896484 -41.96484375 42.28515625 C-40.10142746 42.2615687 -38.23817407 42.22569719 -36.375 42.1875 C-36.271875 42.765 -36.16875 43.3425 -36.0625 43.9375 C-35.36675368 46.67076747 -35.36675368 46.67076747 -32.375 50.1875 C-32.375 41.9375 -32.375 33.6875 -32.375 25.1875 C-33.67116211 25.09343983 -33.67116211 25.09343983 -35.5234375 26.65625 Z M-33.375 60.1875 C-34.0246875 61.6415625 -34.0246875 61.6415625 -34.6875 63.125 C-36.375 66.1875 -36.375 66.1875 -39.375 67.1875 C-42.43620932 67.4170907 -45.4960801 67.56813853 -48.5625 67.7109375 C-51.3553173 67.98011386 -51.3553173 67.98011386 -53.234375 69.47265625 C-55.31348164 72.59843644 -54.60771937 75.52216987 -54.375 79.1875 C-54.045 79.8475 -53.715 80.5075 -53.375 81.1875 C-47.435 81.1875 -41.495 81.1875 -35.375 81.1875 C-35.045 82.5075 -34.715 83.8275 -34.375 85.1875 C-33.715 85.5175 -33.055 85.8475 -32.375 86.1875 C-32.375 77.6075 -32.375 69.0275 -32.375 60.1875 C-32.705 60.1875 -33.035 60.1875 -33.375 60.1875 Z " fill="#000000" transform="translate(565.375,44.8125)"/>
<path d="M0 0 C6.11974418 -0.0992969 12.23901352 -0.17167096 18.359375 -0.21972656 C20.43888525 -0.23977159 22.51833963 -0.26701513 24.59765625 -0.30175781 C27.59649487 -0.35058948 30.59458463 -0.37304028 33.59375 -0.390625 C34.51490601 -0.41127014 35.43606201 -0.43191528 36.38513184 -0.45318604 C43.54867368 -0.45564458 48.7777962 1.22688384 54.2421875 5.9296875 C54.78101563 6.57164063 55.31984375 7.21359375 55.875 7.875 C56.70644531 8.83019531 56.70644531 8.83019531 57.5546875 9.8046875 C61.54857523 15.87107913 61.30551496 22.05373628 61.25 29.0625 C61.26160156 30.53299805 61.26160156 30.53299805 61.2734375 32.03320312 C61.27085937 32.98259766 61.26828125 33.93199219 61.265625 34.91015625 C61.26336914 35.76746338 61.26111328 36.62477051 61.25878906 37.50805664 C60.96881554 40.30028282 60.08068894 42.42165719 59 45 C58.62050527 49.09854304 58.77841179 51.51199044 60.49023438 55.28198242 C62.90292324 60.70327495 62.52015289 66.39720859 62.50097656 72.22338867 C62.50000671 74.29813691 62.54164299 76.36914581 62.5859375 78.44335938 C62.66564711 87.28695141 61.71105533 94.93079869 55.4777832 101.63793945 C47.28760702 108.33680955 35.52084676 107.31835245 25.53100586 107.26074219 C23.30620393 107.24996951 21.0822002 107.26071749 18.85742188 107.2734375 C17.42187325 107.27211656 15.98632511 107.26955553 14.55078125 107.265625 C13.26856689 107.26336914 11.98635254 107.26111328 10.6652832 107.25878906 C6.00606041 106.92982242 1.52577732 106.52577732 -1.875 103.125 C-4.31929104 98.50800581 -4.1594264 93.83896716 -4.17700195 88.71826172 C-4.18357315 87.8851799 -4.19014435 87.05209808 -4.19691467 86.19377136 C-4.2166095 83.43907575 -4.22830351 80.68443464 -4.23828125 77.9296875 C-4.24235678 76.98600437 -4.2464323 76.04232124 -4.25063133 75.07004166 C-4.27147862 70.07241283 -4.28578457 65.07481132 -4.29516602 60.07714844 C-4.30621071 54.93264937 -4.34059213 49.78858517 -4.38033772 44.64423943 C-4.40657265 40.67376947 -4.41486408 36.70340192 -4.41844749 32.73285294 C-4.42329787 30.83756711 -4.43486734 28.94228539 -4.45348549 27.04708481 C-4.62879795 8.01422701 -4.62879795 8.01422701 0 0 Z M28 25 C26.66098208 26.11126659 26.66098208 26.11126659 26.90234375 28.94140625 C26.91394531 30.13636719 26.92554688 31.33132812 26.9375 32.5625 C26.94652344 33.76003906 26.95554688 34.95757812 26.96484375 36.19140625 C26.97644531 37.11824219 26.98804688 38.04507813 27 39 C28.32 39 29.64 39 31 39 C31 34.71 31 30.42 31 26 C30.01 25.67 29.02 25.34 28 25 Z M28 65 C26.1533317 68.14590528 25.75225717 70.43150052 25.8125 74.0625 C25.81894531 74.91972656 25.82539063 75.77695313 25.83203125 76.66015625 C25.91409966 79.15477968 25.91409966 79.15477968 27 82 C28.65 81.67 30.3 81.34 32 81 C32 76.05 32 71.1 32 66 C30.68 65.67 29.36 65.34 28 65 Z " fill="#000000" transform="translate(206,47)"/>
<path d="M0 0 C6.11974418 -0.0992969 12.23901352 -0.17167096 18.359375 -0.21972656 C20.43888525 -0.23977159 22.51833963 -0.26701513 24.59765625 -0.30175781 C27.59649487 -0.35058948 30.59458463 -0.37304028 33.59375 -0.390625 C34.51490601 -0.41127014 35.43606201 -0.43191528 36.38513184 -0.45318604 C43.38679381 -0.45558902 48.51411641 1.18526885 53.98828125 5.60546875 C61.60897646 14.70983913 61.77451176 24.54208571 61.19482422 35.97412109 C60.81378553 39.93635049 59.4367492 43.31442596 58 47 C58.15975326 50.27494188 59.12248956 52.26064275 60.52734375 55.25 C62.84564519 61.45159702 62.47382049 67.90311378 62.4375 74.4375 C62.45748047 75.70916016 62.47746094 76.98082031 62.49804688 78.29101562 C62.49338845 87.27712688 61.37383461 93.80550292 55.6875 100.875 C48.62142223 106.46213126 40.92749497 107.14957043 32.22265625 107.203125 C31.12829506 107.21167511 31.12829506 107.21167511 30.01182556 107.22039795 C28.4764041 107.22979688 26.94096293 107.23636147 25.40551758 107.24023438 C23.072719 107.24995741 20.74079619 107.28103494 18.40820312 107.3125 C16.90885934 107.31902999 15.40950933 107.32428048 13.91015625 107.328125 C13.22139908 107.3404718 12.53264191 107.3528186 11.82301331 107.36553955 C6.91397701 107.34324496 3.27970377 106.40179109 -1 104 C-4.44688625 99.74039647 -4.43328414 95.5696357 -4.40405273 90.31347656 C-4.41434761 89.01733429 -4.41434761 89.01733429 -4.42485046 87.69500732 C-4.44312446 84.84337848 -4.43927877 81.99229975 -4.43359375 79.140625 C-4.43815656 77.15150779 -4.44346243 75.16239216 -4.44947815 73.17327881 C-4.45841142 69.00380045 -4.45598515 64.83451357 -4.44604492 60.66503906 C-4.43457844 55.33769193 -4.45473013 50.01100992 -4.48396206 44.68375015 C-4.50236789 40.57431883 -4.50202246 36.46504542 -4.49632454 32.35558319 C-4.49617174 30.39250508 -4.50218207 28.42941599 -4.51461601 26.46637726 C-4.52960013 23.71187017 -4.51879347 20.95857248 -4.50170898 18.20410156 C-4.51137695 17.4027478 -4.52104492 16.60139404 -4.53100586 15.77575684 C-4.45376833 9.78769296 -2.75501322 5.28652018 0 0 Z M28 25 C25.38826365 27.61173635 25.7018211 28.87198888 25.6875 32.5 C25.67074219 33.4796875 25.65398437 34.459375 25.63671875 35.46875 C25.75660156 36.3040625 25.87648438 37.139375 26 38 C27.485 38.99 27.485 38.99 29 40 C31.61173635 37.38826365 31.2981789 36.12801112 31.3125 32.5 C31.32925781 31.5203125 31.34601563 30.540625 31.36328125 29.53125 C31.24339844 28.6959375 31.12351562 27.860625 31 27 C30.01 26.34 29.02 25.68 28 25 Z M28 65 C25.67386417 68.48920374 25.75752707 69.94952546 25.8125 74.0625 C25.81894531 75.12597656 25.82539063 76.18945312 25.83203125 77.28515625 C25.82027434 79.96648787 25.82027434 79.96648787 27 82 C28.65 81.67 30.3 81.34 32 81 C32 76.38 32 71.76 32 67 C30.68 66.34 29.36 65.68 28 65 Z " fill="#000000" transform="translate(273,47)"/>
<path d="M0 0 C1.56234375 -0.01160156 1.56234375 -0.01160156 3.15625 -0.0234375 C12.44838779 0.00002749 19.27833513 0.73932554 26.23828125 7.31640625 C31.91504587 13.54700157 33.11360849 19.74846584 33.16113281 27.99291992 C33.16858017 28.97941528 33.16858017 28.97941528 33.17617798 29.98583984 C33.19072087 32.15072702 33.19758955 34.31554085 33.203125 36.48046875 C33.20736607 37.59673865 33.20736607 37.59673865 33.21169281 38.73555946 C33.2266562 42.67633033 33.23590273 46.61706488 33.24023438 50.55786133 C33.24570461 54.60482196 33.26970991 58.65144371 33.29820633 62.69829845 C33.31694299 65.83066235 33.32204421 68.96294654 33.32357025 72.09536171 C33.32657416 73.58592894 33.3345251 75.07649553 33.34775543 76.56700706 C33.42825449 86.33572 33.14730295 95.0998679 27.9375 103.625 C19.84384623 110.85762677 10.39802828 110.87354093 0 110.75 C-1.30195313 110.76546875 -2.60390625 110.7809375 -3.9453125 110.796875 C-12.07488224 110.76402825 -20.04679148 110.27886071 -26.60522461 104.94433594 C-34.18684249 96.72501188 -33.44548688 86.43701065 -33.3984375 76.03515625 C-33.40046201 74.45389166 -33.40337658 72.87262799 -33.40713501 71.29136658 C-33.41154193 67.98720354 -33.40518115 64.68328487 -33.39111328 61.37915039 C-33.37403629 57.16509788 -33.38386328 52.95161935 -33.40183067 48.73758793 C-33.41272491 45.47484596 -33.40919623 42.21223772 -33.4014473 38.9494915 C-33.3994601 37.39671191 -33.40185193 35.84391979 -33.40888596 34.29115486 C-33.47581052 15.36609141 -33.47581052 15.36609141 -27.625 8.4375 C-26.75875 7.715625 -25.8925 6.99375 -25 6.25 C-24.236875 5.528125 -23.47375 4.80625 -22.6875 4.0625 C-15.90576167 -0.5112305 -7.87554045 -0.05848174 0 0 Z M-1 25.25 C-3.23786227 27.06571736 -3.23786227 27.06571736 -3.24050903 29.65444946 C-3.23606781 30.66260712 -3.23162659 31.67076477 -3.22705078 32.70947266 C-3.22689972 33.85050446 -3.22674866 34.99153625 -3.22659302 36.16714478 C-3.21627045 37.40362762 -3.20594788 38.64011047 -3.1953125 39.9140625 C-3.1924826 41.17640717 -3.18965271 42.43875183 -3.18673706 43.73934937 C-3.17742131 47.09646944 -3.15944835 50.45331912 -3.1373291 53.81036377 C-3.1168755 57.23553122 -3.1077364 60.66072659 -3.09765625 64.0859375 C-3.07556458 70.80736671 -3.04206377 77.52866773 -3 84.25 C-1.68 84.91 -0.36 85.57 1 86.25 C3.60529263 83.64470737 3.252907 82.55761847 3.25878906 78.92993164 C3.26509338 77.81860367 3.27139771 76.7072757 3.27789307 75.56227112 C3.2738446 74.35707321 3.26979614 73.15187531 3.265625 71.91015625 C3.26753845 70.67712265 3.2694519 69.44408905 3.27142334 68.1736908 C3.27313621 64.89174412 3.26506755 61.60998562 3.25390625 58.32806396 C3.2500069 56.31605997 3.25388805 54.30423069 3.26074219 52.29223633 C3.27307499 48.43562678 3.27160516 44.57927647 3.265625 40.72265625 C3.26967346 39.51948257 3.27372192 38.3163089 3.27789307 37.07667542 C3.27158875 35.96219528 3.26528442 34.84771515 3.25878906 33.69946289 C3.25719788 32.71732315 3.25560669 31.73518341 3.25396729 30.72328186 C3.16847447 27.99700401 3.16847447 27.99700401 1 25.25 C0.34 25.25 -0.32 25.25 -1 25.25 Z " fill="#000000" transform="translate(369,44.75)"/>
<path d="M0 0 C1.47726563 0.15275391 1.47726563 0.15275391 2.984375 0.30859375 C3.73203125 0.39238281 4.4796875 0.47617188 5.25 0.5625 C7.50306146 5.69447332 6.99513453 8.32709641 5.25 13.5625 C4.88049535 15.89037927 4.53647533 18.22295145 4.25 20.5625 C3.59 20.5625 2.93 20.5625 2.25 20.5625 C2.29125 21.305 2.3325 22.0475 2.375 22.8125 C2.24456907 25.68198044 1.78915977 27.16825147 0.25 29.5625 C-0.41 29.8925 -1.07 30.2225 -1.75 30.5625 C-2.47693904 32.54138961 -3.14816251 34.54204558 -3.75 36.5625 C-4.41 36.5625 -5.07 36.5625 -5.75 36.5625 C-5.9975 37.449375 -6.245 38.33625 -6.5 39.25 C-7.79964625 42.69406256 -9.23729227 44.89274803 -11.75 47.5625 C-12.41 47.5625 -13.07 47.5625 -13.75 47.5625 C-13.75 48.2225 -13.75 48.8825 -13.75 49.5625 C-16.625 49.3125 -16.625 49.3125 -19.75 48.5625 C-21.125 46.5 -21.125 46.5 -21.75 44.5625 C-22.41 44.5625 -23.07 44.5625 -23.75 44.5625 C-23.75 43.9025 -23.75 43.2425 -23.75 42.5625 C-24.41 42.5625 -25.07 42.5625 -25.75 42.5625 C-26.08 41.9025 -26.41 41.2425 -26.75 40.5625 C-27.41 41.2225 -28.07 41.8825 -28.75 42.5625 C-28.255 43.01625 -27.76 43.47 -27.25 43.9375 C-25.75 45.5625 -25.75 45.5625 -25.75 47.5625 C-24.76 47.8925 -23.77 48.2225 -22.75 48.5625 C-22.75 49.2225 -22.75 49.8825 -22.75 50.5625 C-22.09 50.5625 -21.43 50.5625 -20.75 50.5625 C-20.4375 52.8125 -20.4375 52.8125 -20.75 55.5625 C-22.75 57.5625 -22.75 57.5625 -25.75 59.5625 C-26.34296875 59.9646875 -26.9359375 60.366875 -27.546875 60.78125 C-32.38981486 63.95821855 -37.41298229 66.33874262 -42.75 68.5625 C-43.554375 68.93375 -44.35875 69.305 -45.1875 69.6875 C-49.28189578 71.08558636 -53.50147137 71.78257687 -57.75 72.5625 C-58.8225 72.789375 -59.895 73.01625 -61 73.25 C-63.75 73.5625 -63.75 73.5625 -69.75 72.5625 C-69.75 66.9525 -69.75 61.3425 -69.75 55.5625 C-67.27552048 54.32526024 -65.4946651 54.5625 -62.75 54.5625 C-61.265 54.0675 -61.265 54.0675 -59.75 53.5625 C-58.2340625 53.4078125 -58.2340625 53.4078125 -56.6875 53.25 C-48.5109032 51.82234024 -41.55925133 48.20344224 -34.75 43.5625 C-35.19909061 42.08050098 -35.65956564 40.60194764 -36.125 39.125 C-36.50785156 37.88943359 -36.50785156 37.88943359 -36.8984375 36.62890625 C-37.55882227 34.38451984 -37.55882227 34.38451984 -39.75 33.5625 C-39.75 29.9325 -39.75 26.3025 -39.75 22.5625 C-35.98569087 23.81726971 -35.69955892 25.25672618 -33.75 28.5625 C-33.09 28.5625 -32.43 28.5625 -31.75 28.5625 C-32.245 26.5825 -32.245 26.5825 -32.75 24.5625 C-31.43 24.5625 -30.11 24.5625 -28.75 24.5625 C-28.09 25.8825 -27.43 27.2025 -26.75 28.5625 C-25.43 27.9025 -24.11 27.2425 -22.75 26.5625 C-22.255 28.0475 -22.255 28.0475 -21.75 29.5625 C-21.09 29.5625 -20.43 29.5625 -19.75 29.5625 C-19.481875 28.86125 -19.21375 28.16 -18.9375 27.4375 C-17.75 24.5625 -17.75 24.5625 -16.1875 21.5 C-14.9731589 19.01852036 -14.35560385 17.20556176 -13.75 14.5625 C-13.25166879 12.52042537 -12.75154489 10.47878771 -12.25 8.4375 C-11.9921875 7.38304688 -11.734375 6.32859375 -11.46875 5.2421875 C-10.75 2.5625 -10.75 2.5625 -9.75 0.5625 C-6.43292672 -0.70803036 -3.48349918 -0.37323205 0 0 Z " fill="#4C9138" transform="translate(163.75,98.4375)"/>
<path d="M0 0 C0 0.66 0 1.32 0 2 C0.66 2 1.32 2 2 2 C3.47265625 3.79296875 3.47265625 3.79296875 5.0625 6.1875 C5.58972656 6.96480469 6.11695313 7.74210937 6.66015625 8.54296875 C8.0387759 11.07110799 8.45353241 13.19995808 9 16 C9.66 16.33 10.32 16.66 11 17 C12.0703125 19.21484375 12.0703125 19.21484375 13.125 21.9375 C13.47820312 22.83339844 13.83140625 23.72929688 14.1953125 24.65234375 C15 27 15 27 15 29 C16.56249809 27.68798827 16.56249809 27.68798827 18 26 C18 25.01 18 24.02 18 23 C18.66 23 19.32 23 20 23 C20.66 21.02 21.32 19.04 22 17 C23.32 17 24.64 17 26 17 C28.1760604 25.16022651 27.38663813 32.38006421 24 40 C24.495 39.01 24.495 39.01 25 38 C25.66 38 26.32 38 27 38 C27 37.34 27 36.68 27 36 C30.465 34.02 30.465 34.02 34 32 C34.495 34.475 34.495 34.475 35 37 C34.01 37.495 34.01 37.495 33 38 C33 38.99 33 39.98 33 41 C30.75 43.4375 30.75 43.4375 28 46 C27.319375 46.78375 26.63875 47.5675 25.9375 48.375 C25.298125 48.91125 24.65875 49.4475 24 50 C22 49.625 22 49.625 20 49 C19.44828125 49.31453125 18.8965625 49.6290625 18.328125 49.953125 C15.07514043 51.41587645 12.29670512 51.19067972 8.75 51.125 C6.85507813 51.09792969 6.85507813 51.09792969 4.921875 51.0703125 C3.47554687 51.03550781 3.47554687 51.03550781 2 51 C0.33122496 46.39418088 -1.08765001 41.89362922 -1.9375 37.0625 C-3.54699758 28.50955004 -6.76734611 20.23265389 -13 14 C-12.82624516 10.69865812 -12.19905231 9.23757856 -10.0625 6.6875 C-8 5 -8 5 -6 5 C-6 4.34 -6 3.68 -6 3 C-2.53846154 0 -2.53846154 0 0 0 Z M15 30 C15.33 31.98 15.66 33.96 16 36 C16.33 36 16.66 36 17 36 C17 34.35 17 32.7 17 31 C16.34 30.67 15.68 30.34 15 30 Z " fill="#2F8534" transform="translate(153,45)"/>
<path d="M0 0 C1.93166016 0.01740234 1.93166016 0.01740234 3.90234375 0.03515625 C5.19269531 0.04417969 6.48304687 0.05320312 7.8125 0.0625 C8.81152344 0.07410156 9.81054688 0.08570312 10.83984375 0.09765625 C12.83770154 5.61174374 14.29694724 11.02415489 15.3671875 16.7890625 C15.95300822 19.6503852 16.83096488 22.35927075 17.83984375 25.09765625 C17.83984375 23.22232669 17.78891431 21.34719257 17.734375 19.47265625 C17.7064327 18.01433426 17.67911405 16.55600022 17.65234375 15.09765625 C17.62720703 14.3603125 17.60207031 13.62296875 17.57617188 12.86328125 C17.546875 10.72265625 17.546875 10.72265625 17.83984375 7.09765625 C18.82984375 6.43765625 19.81984375 5.77765625 20.83984375 5.09765625 C22.33984375 6.47265625 22.33984375 6.47265625 23.83984375 8.09765625 C23.83984375 8.75765625 23.83984375 9.41765625 23.83984375 10.09765625 C24.49984375 10.75765625 25.15984375 11.41765625 25.83984375 12.09765625 C25.96484375 14.72265625 25.96484375 14.72265625 25.83984375 17.09765625 C26.49984375 17.42765625 27.15984375 17.75765625 27.83984375 18.09765625 C28.66788444 20.58177832 28.83984375 22.44985932 28.83984375 25.09765625 C29.76796875 23.61265625 29.76796875 23.61265625 30.71484375 22.09765625 C31.41609375 21.10765625 32.11734375 20.11765625 32.83984375 19.09765625 C33.49984375 19.09765625 34.15984375 19.09765625 34.83984375 19.09765625 C34.83984375 18.43765625 34.83984375 17.77765625 34.83984375 17.09765625 C35.82984375 17.42765625 36.81984375 17.75765625 37.83984375 18.09765625 C38.43891198 23.93857148 36.37443221 28.00997869 33.83984375 33.09765625 C33.52789062 33.82855469 33.2159375 34.55945313 32.89453125 35.3125 C31.83984375 37.09765625 31.83984375 37.09765625 28.83984375 38.03515625 C27.84984375 38.38578125 26.85984375 38.73640625 25.83984375 39.09765625 C25.13772481 40.74970081 24.47012962 42.41689394 23.83984375 44.09765625 C21.21484375 45.41015625 21.21484375 45.41015625 18.83984375 46.09765625 C18.83984375 46.75765625 18.83984375 47.41765625 18.83984375 48.09765625 C16.33984375 49.72265625 16.33984375 49.72265625 13.83984375 51.09765625 C12.84984375 50.43765625 11.85984375 49.77765625 10.83984375 49.09765625 C10.83984375 48.10765625 10.83984375 47.11765625 10.83984375 46.09765625 C10.17984375 46.09765625 9.51984375 46.09765625 8.83984375 46.09765625 C8.50984375 44.44765625 8.17984375 42.79765625 7.83984375 41.09765625 C6.84984375 40.76765625 5.85984375 40.43765625 4.83984375 40.09765625 C4.71609375 39.29328125 4.59234375 38.48890625 4.46484375 37.66015625 C4.25859375 36.81453125 4.05234375 35.96890625 3.83984375 35.09765625 C3.17984375 34.76765625 2.51984375 34.43765625 1.83984375 34.09765625 C2.16984375 33.43765625 2.49984375 32.77765625 2.83984375 32.09765625 C2.17984375 32.09765625 1.51984375 32.09765625 0.83984375 32.09765625 C0.71609375 30.96328125 0.59234375 29.82890625 0.46484375 28.66015625 C0.25859375 27.48453125 0.05234375 26.30890625 -0.16015625 25.09765625 C-0.82015625 24.76765625 -1.48015625 24.43765625 -2.16015625 24.09765625 C-2.16015625 22.11765625 -2.16015625 20.13765625 -2.16015625 18.09765625 C-2.82015625 18.09765625 -3.48015625 18.09765625 -4.16015625 18.09765625 C-4.18699937 15.28509344 -4.20691813 12.47278384 -4.22265625 9.66015625 C-4.23103516 8.85771484 -4.23941406 8.05527344 -4.24804688 7.22851562 C-4.25667055 5.18470404 -4.21243775 3.14081723 -4.16015625 1.09765625 C-3.16015625 0.09765625 -3.16015625 0.09765625 0 0 Z M19.83984375 27.09765625 C19.50984375 27.75765625 19.17984375 28.41765625 18.83984375 29.09765625 C19.49984375 29.09765625 20.15984375 29.09765625 20.83984375 29.09765625 C20.50984375 28.43765625 20.17984375 27.77765625 19.83984375 27.09765625 Z " fill="#448D37" transform="translate(23.16015625,93.90234375)"/>
<path d="M0 0 C3.0109362 2.0072908 3.63016497 2.83884224 5 6 C5.66 6 6.32 6 7 6 C7.33 4.68 7.66 3.36 8 2 C8.66 2 9.32 2 10 2 C10 4.31 10 6.62 10 9 C10.598125 8.484375 11.19625 7.96875 11.8125 7.4375 C12.8953125 6.7259375 12.8953125 6.7259375 14 6 C14.99 6.33 15.98 6.66 17 7 C16.34 8.65 15.68 10.3 15 12 C16.32 12 17.64 12 19 12 C19.33 11.34 19.66 10.68 20 10 C26.61751832 5.95683845 33.37938139 4.0886598 41 3 C41.969375 2.649375 42.93875 2.29875 43.9375 1.9375 C47.8411958 0.74249108 50.92634229 0.79286486 55 1 C56 2 56 2 56.09765625 5.81640625 C56.09098089 7.39846682 56.07901875 8.98051159 56.0625 10.5625 C56.05798828 11.36880859 56.05347656 12.17511719 56.04882812 13.00585938 C56.03700518 15.00393756 56.01906914 17.00197783 56 19 C53 20 53 20 49.875 19.875 C45.82271339 20.00571892 42.94147811 20.84597268 39.1796875 22.2265625 C37 23 37 23 33.625 23.75 C28.2070761 25.61824962 23.72809302 28.80778433 19 32 C18.01 32.66 17.02 33.32 16 34 C12 29.25 12 29.25 12 27 C11.01 26.67 10.02 26.34 9 26 C9 25.34 9 24.68 9 24 C7.02840723 22.97706413 7.02840723 22.97706413 5.01171875 22.21875 C2.43174807 20.65573863 1.91624625 19.27513343 0.8125 16.5 C0.48894531 15.7059375 0.16539063 14.911875 -0.16796875 14.09375 C-0.57982422 13.05734375 -0.57982422 13.05734375 -1 12 C-1.33 11.34 -1.66 10.68 -2 10 C-2.35294118 3.52941176 -2.35294118 3.52941176 0 0 Z " fill="#308436" transform="translate(39,17)"/>
<path d="M0 0 C2.25 1.0625 2.25 1.0625 3.5625 3.125 C3.9028125 4.0840625 3.9028125 4.0840625 4.25 5.0625 C4.91 5.0625 5.57 5.0625 6.25 5.0625 C6.25 5.7225 6.25 6.3825 6.25 7.0625 C6.91 7.0625 7.57 7.0625 8.25 7.0625 C8.91 8.3825 9.57 9.7025 10.25 11.0625 C8.9760411 13.10083424 7.63938077 15.10102126 6.25 17.0625 C5.59 17.0625 4.93 17.0625 4.25 17.0625 C4.25 18.0525 4.25 19.0425 4.25 20.0625 C3.26 20.5575 3.26 20.5575 2.25 21.0625 C-1.37465373 27.77740338 -4.06697272 34.70820107 -5.25 42.25 C-5.75 45.0625 -5.75 45.0625 -7.75 49.0625 C-13.03 49.0625 -18.31 49.0625 -23.75 49.0625 C-24.41 50.3825 -25.07 51.7025 -25.75 53.0625 C-27.07 52.7325 -28.39 52.4025 -29.75 52.0625 C-29.75 51.4025 -29.75 50.7425 -29.75 50.0625 C-30.41 50.0625 -31.07 50.0625 -31.75 50.0625 C-31.75 49.4025 -31.75 48.7425 -31.75 48.0625 C-32.41 48.0625 -33.07 48.0625 -33.75 48.0625 C-34.41 46.0825 -35.07 44.1025 -35.75 42.0625 C-33.58125748 42.56853992 -31.75032373 43.06233813 -29.75 44.0625 C-29.75 39.7725 -29.75 35.4825 -29.75 31.0625 C-26.29602565 34.51647435 -25.18624095 35.75377714 -23.75 40.0625 C-23.62625 39.381875 -23.5025 38.70125 -23.375 38 C-21.99991721 31.5371109 -19.87468735 25.30908081 -17.75 19.0625 C-17.09 19.0625 -16.43 19.0625 -15.75 19.0625 C-15.481875 18.175625 -15.21375 17.28875 -14.9375 16.375 C-13.8249365 13.2715334 -12.64804222 10.75139315 -10.75 8.0625 C-10.09 8.0625 -9.43 8.0625 -8.75 8.0625 C-8.75 7.0725 -8.75 6.0825 -8.75 5.0625 C-3.88893291 0.08838484 -3.88893291 0.08838484 0 0 Z " fill="#308534" transform="translate(42.75,41.9375)"/>
<path d="M0 0 C1.175625 0.309375 2.35125 0.61875 3.5625 0.9375 C6.26837814 1.62349727 8.77626406 2.09533067 11.5625 2.4375 C15.41890793 3.06854857 18.4624059 4.36222495 22 6 C23.2375 6.4640625 23.2375 6.4640625 24.5 6.9375 C27.84434084 8.35884486 30.85749986 10.17163628 34 12 C35.32646156 12.6802367 36.65608877 13.35492261 38 14 C38 14.66 38 15.32 38 16 C38.928125 16.4640625 38.928125 16.4640625 39.875 16.9375 C41.25 17.625 42.625 18.3125 44 19 C44 19.66 44 20.32 44 21 C44.66 21 45.32 21 46 21 C45.67 23.31 45.34 25.62 45 28 C44.01 28.33 43.02 28.66 42 29 C42 29.66 42 30.32 42 31 C41.34 31 40.68 31 40 31 C40 31.66 40 32.32 40 33 C37.625 34.0625 37.625 34.0625 35 35 C34.01 34.505 34.01 34.505 33 34 C33 33.34 33 32.68 33 32 C32.29875 31.7525 31.5975 31.505 30.875 31.25 C27.63109126 29.83960489 24.92843341 27.97350947 22 26 C21.01 25.67 20.02 25.34 19 25 C19 24.34 19 23.68 19 23 C17.35 23 15.7 23 14 23 C14 22.34 14 21.68 14 21 C13.01 21.33 12.02 21.66 11 22 C9.27262844 21.28297784 7.54683577 20.55945645 5.8515625 19.76953125 C3.29418674 18.70665567 0.73677743 18.33375334 -2 18 C-3.81361152 11.98644603 -2.71114746 5.60303808 0 0 Z " fill="#418C36" transform="translate(101,18)"/>
<path d="M0 0 C2.60778152 1.04603177 4.42663456 2.49244216 6.59375 4.27734375 C10.58713817 7.55274261 14.01589288 9.75173151 19.09375 10.83984375 C19.09375 11.49984375 19.09375 12.15984375 19.09375 12.83984375 C19.83625 12.79859375 20.57875 12.75734375 21.34375 12.71484375 C24.09375 12.83984375 24.09375 12.83984375 26.03125 13.83984375 C28.16181421 15.06598493 28.16181421 15.06598493 31.09375 14.77734375 C34.58121637 14.8499993 35.48053537 15.6828153 38.09375 17.83984375 C37.78563262 20.29879993 37.47246012 22.75692682 37.15625 25.21484375 C37.06923828 25.91351563 36.98222656 26.6121875 36.89257812 27.33203125 C36.20703125 32.61328125 36.20703125 32.61328125 35.09375 34.83984375 C33.918125 34.53046875 32.7425 34.22109375 31.53125 33.90234375 C28.79389415 33.21075031 26.21838202 32.72114979 23.40625 32.33984375 C20.26310858 31.86540731 17.97464918 31.13624838 15.09375 29.83984375 C10.14878984 27.69606855 10.14878984 27.69606855 5.09375 25.83984375 C5.09375 25.17984375 5.09375 24.51984375 5.09375 23.83984375 C2.44146188 22.76459181 -0.18993454 21.74528224 -2.90625 20.83984375 C-4.25993596 19.52717857 -5.59424596 18.1941705 -6.90625 16.83984375 C-7.56625 16.50984375 -8.22625 16.17984375 -8.90625 15.83984375 C-8.90625 15.17984375 -8.90625 14.51984375 -8.90625 13.83984375 C-9.56625 13.83984375 -10.22625 13.83984375 -10.90625 13.83984375 C-11.10711443 10.12385184 -11.0581937 9.0677593 -8.90625 5.83984375 C-8.24625 5.83984375 -7.58625 5.83984375 -6.90625 5.83984375 C-6.90625 5.17984375 -6.90625 4.51984375 -6.90625 3.83984375 C-6.24625 3.83984375 -5.58625 3.83984375 -4.90625 3.83984375 C-4.90625 3.17984375 -4.90625 2.51984375 -4.90625 1.83984375 C-1.90625 -0.16015625 -1.90625 -0.16015625 0 0 Z " fill="#418B36" transform="translate(52.90625,137.16015625)"/>
<path d="M0 0 C2.125 2.8125 2.125 2.8125 1.9375 5.125 C1.669375 5.681875 1.40125 6.23875 1.125 6.8125 C1.929375 7.34875 2.73375 7.885 3.5625 8.4375 C6.125 10.8125 6.125 10.8125 7.25 13.75 C7.125 16.8125 7.125 16.8125 4.6875 19.5625 C3.841875 20.305 2.99625 21.0475 2.125 21.8125 C2.125 22.4725 2.125 23.1325 2.125 23.8125 C1.64479087 26.00774174 1.1330929 27.7963142 0.125 29.8125 C-6.01636732 31.31887312 -6.01636732 31.31887312 -9.3125 29.375 C-9.828125 28.859375 -10.34375 28.34375 -10.875 27.8125 C-11.205 28.4725 -11.535 29.1325 -11.875 29.8125 C-15.43192677 30.66306945 -17.36770578 30.98159807 -20.875 29.8125 C-21.5625 27.75 -21.5625 27.75 -21.875 25.8125 C-22.535 25.8125 -23.195 25.8125 -23.875 25.8125 C-23.875 25.1525 -23.875 24.4925 -23.875 23.8125 C-23.215 23.8125 -22.555 23.8125 -21.875 23.8125 C-21.875 23.1525 -21.875 22.4925 -21.875 21.8125 C-22.803125 21.379375 -22.803125 21.379375 -23.75 20.9375 C-25.875 19.8125 -25.875 19.8125 -27.875 17.8125 C-28.25 14.9375 -28.25 14.9375 -27.875 11.8125 C-26 9.4375 -26 9.4375 -23.875 7.8125 C-23.215 7.8125 -22.555 7.8125 -21.875 7.8125 C-21.875 7.1525 -21.875 6.4925 -21.875 5.8125 C-22.535 5.8125 -23.195 5.8125 -23.875 5.8125 C-23.875 4.8225 -23.875 3.8325 -23.875 2.8125 C-23.215 2.8125 -22.555 2.8125 -21.875 2.8125 C-21.215 1.4925 -20.555 0.1725 -19.875 -1.1875 C-16.5 -1.375 -16.5 -1.375 -12.875 -1.1875 C-12.215 -0.1975 -11.555 0.7925 -10.875 1.8125 C-10.483125 1.338125 -10.09125 0.86375 -9.6875 0.375 C-6.01276919 -2.79287139 -3.8755963 -2.94882327 0 0 Z M-10.875 5.8125 C-11.865 7.2975 -11.865 7.2975 -12.875 8.8125 C-15.5 9.5 -15.5 9.5 -17.875 9.8125 C-17.74571854 13.89287108 -17.74571854 13.89287108 -16.875 17.8125 C-13.97346449 20.36048166 -13.97346449 20.36048166 -10.875 21.8125 C-10.25625 21.503125 -9.6375 21.19375 -9 20.875 C-7.625 20.1875 -6.25 19.5 -4.875 18.8125 C-4.936875 17.69875 -4.936875 17.69875 -5 16.5625 C-4.87101866 13.72491048 -4.30448778 12.22476062 -2.875 9.8125 C-3.82375 9.52375 -4.7725 9.235 -5.75 8.9375 C-8.875 7.8125 -8.875 7.8125 -10.875 5.8125 Z " fill="#000000" transform="translate(104.875,80.1875)"/>
<path d="M0 0 C0 0.66 0 1.32 0 2 C0.66 2 1.32 2 2 2 C3.47265625 3.6875 3.47265625 3.6875 5.0625 6 C5.58972656 6.7425 6.11695313 7.485 6.66015625 8.25 C9.87269902 14.84367378 9.03599647 20.69088846 7.25 27.5 C7.07984375 28.20769531 6.9096875 28.91539063 6.734375 29.64453125 C5.50593745 34.58537932 3.85716957 39.26101558 2 44 C1.34 44 0.68 44 0 44 C-1.89806678 37.54657293 -1.89806678 37.54657293 -2.453125 34.5703125 C-4.07382904 26.95300351 -7.4640744 19.5359256 -13 14 C-12.82624516 10.69865812 -12.19905231 9.23757856 -10.0625 6.6875 C-8 5 -8 5 -6 5 C-6 4.34 -6 3.68 -6 3 C-2.53846154 0 -2.53846154 0 0 0 Z " fill="#4A9036" transform="translate(153,45)"/>
<path d="M0 0 C3.0109362 2.0072908 3.63016497 2.83884224 5 6 C5.66 6 6.32 6 7 6 C7.33 4.68 7.66 3.36 8 2 C8.66 2 9.32 2 10 2 C10 4.31 10 6.62 10 9 C10.598125 8.484375 11.19625 7.96875 11.8125 7.4375 C12.8953125 6.7259375 12.8953125 6.7259375 14 6 C14.99 6.33 15.98 6.66 17 7 C16.34 8.65 15.68 10.3 15 12 C19.29 12 23.58 12 28 12 C28 12.66 28 13.32 28 14 C27.0925 14.639375 26.185 15.27875 25.25 15.9375 C20.77432735 19.46925116 19.40898418 24.64586011 18 30 C18 30.99 18 31.98 18 33 C17.01 33.495 17.01 33.495 16 34 C12 29.25 12 29.25 12 27 C11.01 26.67 10.02 26.34 9 26 C9 25.34 9 24.68 9 24 C7.02840723 22.97706413 7.02840723 22.97706413 5.01171875 22.21875 C2.43174807 20.65573863 1.91624625 19.27513343 0.8125 16.5 C0.48894531 15.7059375 0.16539063 14.911875 -0.16796875 14.09375 C-0.57982422 13.05734375 -0.57982422 13.05734375 -1 12 C-1.33 11.34 -1.66 10.68 -2 10 C-2.35294118 3.52941176 -2.35294118 3.52941176 0 0 Z " fill="#71A349" transform="translate(39,17)"/>
<path d="M0 0 C1.32 0.66 2.64 1.32 4 2 C3.01 3.485 3.01 3.485 2 5 C3.2065625 5.185625 3.2065625 5.185625 4.4375 5.375 C7.03627235 5.83092497 9.50960695 6.36884194 12.0625 7 C17.96927828 8.35532241 23.96465105 8.64552819 30 9 C26.9107843 12.0892157 22.98190512 13.30943678 19 15 C17.7934375 15.556875 17.7934375 15.556875 16.5625 16.125 C12.46810422 17.52308636 8.24852863 18.22007687 4 19 C2.9275 19.226875 1.855 19.45375 0.75 19.6875 C-2 20 -2 20 -8 19 C-8 13.39 -8 7.78 -8 2 C-5.53925394 0.76962697 -3.7202437 1 -1 1 C-0.67 0.67 -0.34 0.34 0 0 Z " fill="#338535" transform="translate(102,152)"/>
<path d="M0 0 C0.66 0.99 1.32 1.98 2 3 C1.34 3 0.68 3 0 3 C0.04125 3.7425 0.0825 4.485 0.125 5.25 C-0.00543093 8.11948044 -0.46084023 9.60575147 -2 12 C-2.99 12.495 -2.99 12.495 -4 13 C-4.72693904 14.97888961 -5.39816251 16.97954558 -6 19 C-6.66 19 -7.32 19 -8 19 C-8.2475 19.886875 -8.495 20.77375 -8.75 21.6875 C-10.04964625 25.13156256 -11.48729227 27.33024803 -14 30 C-14.66 30 -15.32 30 -16 30 C-16 30.66 -16 31.32 -16 32 C-18.875 31.75 -18.875 31.75 -22 31 C-23.375 28.9375 -23.375 28.9375 -24 27 C-24.66 27 -25.32 27 -26 27 C-26 26.34 -26 25.68 -26 25 C-26.66 25 -27.32 25 -28 25 C-28.8125 23 -28.8125 23 -29 20 C-27.58832428 17.15031132 -25.85115239 14.58136476 -24 12 C-23 14 -23 14 -23 16 C-10.09981889 9.82326551 -10.09981889 9.82326551 0 0 Z " fill="#338535" transform="translate(166,116)"/>
<path d="M0 0 C0.01417969 0.68964844 0.02835938 1.37929687 0.04296875 2.08984375 C0.36687362 8.47164518 1.49551015 12.82441108 4.94140625 18.22265625 C6 20 6 20 6 22 C0.72 22 -4.56 22 -10 22 C-10.66 23.32 -11.32 24.64 -12 26 C-13.32 25.67 -14.64 25.34 -16 25 C-16 24.34 -16 23.68 -16 23 C-16.66 23 -17.32 23 -18 23 C-18 22.34 -18 21.68 -18 21 C-18.66 21 -19.32 21 -20 21 C-20.66 19.02 -21.32 17.04 -22 15 C-19.83125748 15.50603992 -18.00032373 15.99983813 -16 17 C-16 12.71 -16 8.42 -16 4 C-12.54602565 7.45397435 -11.43624095 8.69127714 -10 13 C-9.9071875 11.9171875 -9.9071875 11.9171875 -9.8125 10.8125 C-8.74416929 7.11443214 -6.82491139 5.55587221 -4 3 C-3.4225 2.401875 -2.845 1.80375 -2.25 1.1875 C-1 0 -1 0 0 0 Z " fill="#85C548" transform="translate(29,69)"/>
<path d="M0 0 C-0.375 2.4375 -0.375 2.4375 -1 5 C-1.99 5.495 -1.99 5.495 -3 6 C-7.16938251 13.72404838 -9.59637333 21.3777219 -11 30 C-11.33 30.66 -11.66 31.32 -12 32 C-15.37673632 30.87442123 -15.59052027 30.56500561 -17.125 27.5625 C-19.37405219 22.83262306 -19.78765037 18.18133104 -20 13 C-20.928125 13.99 -20.928125 13.99 -21.875 15 C-24 17 -24 17 -26 17 C-24.86280581 13.58841744 -23.95657056 12.88145399 -21 11 C-20.34 11 -19.68 11 -19 11 C-19 10.34 -19 9.68 -19 9 C-14.23375959 5.18181286 -6.24376626 0 0 0 Z " fill="#4C9138" transform="translate(48,57)"/>
<path d="M0 0 C2.06356895 0.2840051 4.1258285 0.57753352 6.1875 0.875 C7.33605469 1.03742187 8.48460938 1.19984375 9.66796875 1.3671875 C12.72733524 1.94821607 15.24310415 2.55855172 18 4 C18.33 4.99 18.66 5.98 19 7 C15.06686549 8.79556141 11.30863294 10.21429635 7.125 11.3125 C2.35839158 12.6567417 -1.09743383 14.8725502 -4.9921875 17.890625 C-7 19 -7 19 -9.2578125 18.671875 C-10.12019531 18.33929688 -10.12019531 18.33929688 -11 18 C-7.23717211 5.99678924 -7.23717211 5.99678924 -2 2 C-1.34 2 -0.68 2 0 2 C0 1.34 0 0.68 0 0 Z " fill="#4D9139" transform="translate(67,29)"/>
<path d="M0 0 C8.21610872 1.43781903 14.56214874 3.36262273 20 10 C20 10.66 20 11.32 20 12 C19.20335938 12.03738281 18.40671875 12.07476562 17.5859375 12.11328125 C11.71299771 12.47766073 7.10004246 12.81247346 2 16 C0.66666667 16.66666667 -0.66666667 17.33333333 -2 18 C-2.90235526 15.00797993 -3.04732668 12.66130585 -2.6875 9.5625 C-2.60886719 8.82128906 -2.53023438 8.08007812 -2.44921875 7.31640625 C-1.94315115 4.70685767 -1.05233673 2.43540785 0 0 Z " fill="#84C448" transform="translate(101,18)"/>
<path d="M0 0 C0.98484375 0.10183594 1.9696875 0.20367187 2.984375 0.30859375 C4.10585937 0.43427734 4.10585937 0.43427734 5.25 0.5625 C7.47466463 5.62979167 7.21211913 8.42361657 5.25 13.5625 C3.63390921 16.65415195 2.00684966 19.37999402 -0.75 21.5625 C-1.74 21.5625 -2.73 21.5625 -3.75 21.5625 C-3.87117187 20.67046875 -3.99234375 19.7784375 -4.1171875 18.859375 C-4.28476563 17.68890625 -4.45234375 16.5184375 -4.625 15.3125 C-4.86863281 13.57226562 -4.86863281 13.57226562 -5.1171875 11.796875 C-5.67664813 8.93740954 -6.16565692 6.97779225 -7.75 4.5625 C-8.74 3.9025 -9.73 3.2425 -10.75 2.5625 C-9.75 0.5625 -9.75 0.5625 -8.046875 -0.08984375 C-5.25636896 -0.51221626 -2.80414447 -0.30044405 0 0 Z " fill="#85C345" transform="translate(163.75,98.4375)"/>
<path d="M0 0 C0.99 0.33 1.98 0.66 3 1 C2.69188262 3.45895618 2.37871012 5.91708307 2.0625 8.375 C1.97548828 9.07367188 1.88847656 9.77234375 1.79882812 10.4921875 C1.11328125 15.7734375 1.11328125 15.7734375 0 18 C-9.98136428 15.5352498 -15.55745703 13.08085287 -22 5 C-20.60587891 5.05220703 -20.60587891 5.05220703 -19.18359375 5.10546875 C-9.65179401 5.40965784 -9.65179401 5.40965784 -1 2 C-0.67 1.34 -0.34 0.68 0 0 Z " fill="#83C347" transform="translate(88,154)"/>
<path d="M0 0 C1.485 1.36125 1.485 1.36125 3 2.75 C7.98287582 7.01671351 13.40035431 10.17504429 20 11 C19.3125 13.375 19.3125 13.375 18 16 C15.375 17.3125 15.375 17.3125 13 18 C13 18.66 13 19.32 13 20 C10.5 21.625 10.5 21.625 8 23 C7.01 22.34 6.02 21.68 5 21 C5 20.01 5 19.02 5 18 C4.34 18 3.68 18 3 18 C2.67 16.35 2.34 14.7 2 13 C1.01 12.67 0.02 12.34 -1 12 C-0.67 8.04 -0.34 4.08 0 0 Z " fill="#82C347" transform="translate(29,122)"/>
<path d="M0 0 C4.29 0 8.58 0 13 0 C13 0.66 13 1.32 13 2 C12.0925 2.639375 11.185 3.27875 10.25 3.9375 C5.77432735 7.46925116 4.40898418 12.64586011 3 18 C3 18.99 3 19.98 3 21 C2.34 21.33 1.68 21.66 1 22 C-3 17.25 -3 17.25 -3 15 C-3.99 14.67 -4.98 14.34 -6 14 C-6 13.34 -6 12.68 -6 12 C-6.66 11.67 -7.32 11.34 -8 11 C-7.45912682 7.21388773 -5.88277668 5.44599233 -3 3 C-2.34 3 -1.68 3 -1 3 C-0.67 2.01 -0.34 1.02 0 0 Z " fill="#83C346" transform="translate(54,29)"/>
<path d="M0 0 C1.9375 0.8125 1.9375 0.8125 4 2 C4.33 2.99 4.66 3.98 5 5 C5.99 5.33 6.98 5.66 8 6 C8 6.66 8 7.32 8 8 C8.66 8 9.32 8 10 8 C10.3125 10.25 10.3125 10.25 10 13 C7.8125 15.125 7.8125 15.125 5 17 C4.2575 17.52980469 3.515 18.05960938 2.75 18.60546875 C-0.653437 20.33135939 -3.01944128 20.30244117 -6.8125 20.1875 C-8.55466797 20.14689453 -8.55466797 20.14689453 -10.33203125 20.10546875 C-11.21246094 20.07066406 -12.09289062 20.03585938 -13 20 C-12 18 -12 18 -9.75 16.875 C-3.93545568 12.91053797 -1.52624762 6.65998963 0 0 Z " fill="#83C448" transform="translate(133,141)"/>
<path d="M0 0 C0 0.66 0 1.32 0 2 C0.66 2 1.32 2 2 2 C6.3449235 9.15360619 7.71404789 14.65357353 7 23 C6.360625 22.278125 5.72125 21.55625 5.0625 20.8125 C0.72572931 16.50037005 -4.42551624 13.22583191 -10.5625 12.6875 C-11.366875 12.790625 -12.17125 12.89375 -13 13 C-12.45912682 9.21388773 -10.88277668 7.44599233 -8 5 C-7.34 5 -6.68 5 -6 5 C-6 4.34 -6 3.68 -6 3 C-2.53846154 0 -2.53846154 0 0 0 Z " fill="#84C447" transform="translate(153,45)"/>
<path d="M0 0 C0.99 0.33 1.98 0.66 3 1 C5.08947317 8.83552438 4.65241999 15.83563771 1 23 C0.32723284 24.6642135 -0.34206835 26.32986582 -1 28 C-1.66 28 -2.32 28 -3 28 C-3.33 27.01 -3.66 26.02 -4 25 C-4.66 24.67 -5.32 24.34 -6 24 C-6.37890625 22.00390625 -6.37890625 22.00390625 -6.5625 19.5625 C-6.8061175 16.15371795 -6.8061175 16.15371795 -8 13 C-7.505 12.566875 -7.01 12.13375 -6.5 11.6875 C-4.66781808 10.00259517 -4.66781808 10.00259517 -5 7 C-4.34 7 -3.68 7 -3 7 C-2.690625 6.030625 -2.38125 5.06125 -2.0625 4.0625 C-1 1 -1 1 0 0 Z " fill="#659B41" transform="translate(176,61)"/>
<path d="M0 0 C3.76430913 1.25476971 4.05044108 2.69422618 6 6 C6.66 6 7.32 6 8 6 C7.67 4.68 7.34 3.36 7 2 C8.32 2 9.64 2 11 2 C11.66 3.32 12.32 4.64 13 6 C14.32 5.34 15.64 4.68 17 4 C16.26751592 12.78980892 16.26751592 12.78980892 13 16 C10.51953125 16.390625 10.51953125 16.390625 7.8125 16.25 C6.91144531 16.21390625 6.01039063 16.1778125 5.08203125 16.140625 C4.39496094 16.09421875 3.70789063 16.0478125 3 16 C2.87625 15.360625 2.7525 14.72125 2.625 14.0625 C2.41875 13.381875 2.2125 12.70125 2 12 C1.34 11.67 0.68 11.34 0 11 C0 7.37 0 3.74 0 0 Z " fill="#619C43" transform="translate(124,121)"/>
<path d="M0 0 C2 1.375 2 1.375 4 3 C4 3.66 4 4.32 4 5 C4.66 5.66 5.32 6.32 6 7 C6.125 9.625 6.125 9.625 6 12 C6.66 12.33 7.32 12.66 8 13 C8.97951027 15.36714981 9.1512881 16.55988916 8.3125 19 C6.77256941 21.3465609 5.11131674 23.15259785 3 25 C2.34 25 1.68 25 1 25 C-2.14836194 17.39145864 -2.8401184 10.21570332 -2 2 C-1.34 1.34 -0.68 0.68 0 0 Z " fill="#6BA142" transform="translate(43,99)"/>
<path d="M0 0 C5.10328849 5.10328849 6.3466299 8.90379905 7.046875 15.90625 C7 18 7 18 5.5625 20.5625 C5.046875 21.036875 4.53125 21.51125 4 22 C2.68 21.67 1.36 21.34 0 21 C0 20.34 0 19.68 0 19 C-0.66 19 -1.32 19 -2 19 C-2 18.34 -2 17.68 -2 17 C-2.66 17 -3.32 17 -4 17 C-4.66 15.02 -5.32 13.04 -6 11 C-3.83125748 11.50603992 -2.00032373 11.99983813 0 13 C0 8.71 0 4.42 0 0 Z " fill="#5F9A42" transform="translate(13,73)"/>
<path d="M0 0 C4.62 0 9.24 0 14 0 C16.52076923 5.73692308 16.52076923 5.73692308 17 9 C14.875 12 14.875 12 13.41796875 13.3828125 C10.80614689 16.36158454 10.02777727 20.23983927 9 24 C6.56073259 21.56073259 6.67759481 20.79830814 6.625 17.4375 C6.7131041 11.9189796 8.42147638 7.80495968 11 3 C11.33 2.34 11.66 1.68 12 1 C8.04 1 4.08 1 0 1 C0 0.67 0 0.34 0 0 Z " fill="#1E6E2B" transform="translate(20,94)"/>
<path d="M0 0 C3.0109362 2.0072908 3.63016497 2.83884224 5 6 C5.66 6 6.32 6 7 6 C7.33 4.68 7.66 3.36 8 2 C8.66 2 9.32 2 10 2 C10 4.31 10 6.62 10 9 C10.598125 8.484375 11.19625 7.96875 11.8125 7.4375 C12.8953125 6.7259375 12.8953125 6.7259375 14 6 C14.99 6.33 15.98 6.66 17 7 C16.01 8.98 15.02 10.96 14 13 C12.68 13 11.36 13 10 13 C10 12.01 10 11.02 10 10 C8.7625 10.020625 7.525 10.04125 6.25 10.0625 C3.3359175 10.06766681 0.79046673 9.93015558 -2 9 C-2.25 3.375 -2.25 3.375 0 0 Z " fill="#8DB24A" transform="translate(39,17)"/>
<path d="M0 0 C1.32 0.66 2.64 1.32 4 2 C3.01 3.485 3.01 3.485 2 5 C2.886875 5.12375 3.77375 5.2475 4.6875 5.375 C7.70387502 5.94412736 10.20326054 6.76614436 13 8 C13 8.66 13 9.32 13 10 C5.8553402 10.48076215 -1.03577893 10.49397122 -7 6 C-7.7421875 3.859375 -7.7421875 3.859375 -8 2 C-5.53925394 0.76962697 -3.7202437 1 -1 1 C-0.67 0.67 -0.34 0.34 0 0 Z " fill="#20682B" transform="translate(102,152)"/>
<path d="M0 0 C4.71847784 2.35923892 8.16918632 5.57347288 11 10 C11.73155167 12.4464228 11.89479517 14.42248161 12 17 C12.99 16.67 13.98 16.34 15 16 C15.33 16.99 15.66 17.98 16 19 C13.625 20.0625 13.625 20.0625 11 21 C10.34 20.67 9.68 20.34 9 20 C9 19.34 9 18.68 9 18 C8.01 17.67 7.02 17.34 6 17 C5.9071875 15.7934375 5.9071875 15.7934375 5.8125 14.5625 C4.88043961 10.47577367 3.20035815 7.52070989 1.05859375 3.953125 C0 2 0 2 0 0 Z " fill="#206C2C" transform="translate(125,32)"/>
<path d="M0 0 C1.9375 0.6875 1.9375 0.6875 3.9375 1.6875 C4.40569197 3.59371015 4.86826032 5.50160146 5.29296875 7.41796875 C6.17872083 10.53688971 7.64381783 13.20895424 9.23046875 16.0234375 C9.46378906 16.57257813 9.69710937 17.12171875 9.9375 17.6875 C9.6075 18.3475 9.2775 19.0075 8.9375 19.6875 C2.69163223 15.37153519 0.21849282 10.85633457 -2.0625 3.6875 C-3.0525 4.1825 -3.0525 4.1825 -4.0625 4.6875 C-4.3925 3.6975 -4.7225 2.7075 -5.0625 1.6875 C-2.0625 -0.3125 -2.0625 -0.3125 0 0 Z " fill="#1F6A2C" transform="translate(53.0625,137.3125)"/>
<path d="M0 0 C0.33 0.99 0.66 1.98 1 3 C-0.8125 5.6875 -0.8125 5.6875 -3 8 C-3.66 8 -4.32 8 -5 8 C-5 8.66 -5 9.32 -5 10 C-7.875 9.75 -7.875 9.75 -11 9 C-12.375 6.9375 -12.375 6.9375 -13 5 C-13.66 5 -14.32 5 -15 5 C-15.33 4.01 -15.66 3.02 -16 2 C-14.64455078 1.90912109 -14.64455078 1.90912109 -13.26171875 1.81640625 C-11.49248047 1.69072266 -11.49248047 1.69072266 -9.6875 1.5625 C-7.92986328 1.44068359 -7.92986328 1.44068359 -6.13671875 1.31640625 C-2.97409042 1.1132629 -2.97409042 1.1132629 0 0 Z " fill="#1A963C" transform="translate(155,138)"/>
<path d="M0 0 C-0.55058933 3.626024 -1.71928268 5.00540726 -4.625 7.1875 C-8.48518862 9.95373625 -11.29248368 10.80385349 -16 11 C-16.33 11.99 -16.66 12.98 -17 14 C-17.8125 12 -17.8125 12 -18 9 C-16.58832428 6.15031132 -14.85115239 3.58136476 -13 1 C-12 3 -12 3 -12 5 C-10.95199219 4.45859375 -10.95199219 4.45859375 -9.8828125 3.90625 C-8.97273437 3.4421875 -8.06265625 2.978125 -7.125 2.5 C-6.22007812 2.0359375 -5.31515625 1.571875 -4.3828125 1.09375 C-2 0 -2 0 0 0 Z " fill="#206A2A" transform="translate(155,127)"/>
<path d="M0 0 C7.96475086 -0.76258253 13.16714816 0.92936486 20 5 C19.67 6.32 19.34 7.64 19 9 C16.36 8.67 13.72 8.34 11 8 C10.67 7.01 10.34 6.02 10 5 C6.7 4.34 3.4 3.68 0 3 C0 2.01 0 1.02 0 0 Z " fill="#206C2D" transform="translate(75,28)"/>
<path d="M0 0 C1.5159375 1.36125 1.5159375 1.36125 3.0625 2.75 C6.50176519 5.71197941 9.99684943 7.87587929 14 10 C8.86649792 12.7500904 5.77621177 13.18149786 0 12 C0 8.04 0 4.08 0 0 Z " fill="#1C983E" transform="translate(94,159)"/>
<path d="M0 0 C0.66 0.66 1.32 1.32 2 2 C0.02 4.97 0.02 4.97 -2 8 C-2.33 7.34 -2.66 6.68 -3 6 C-3.91523437 6.44472656 -4.83046875 6.88945313 -5.7734375 7.34765625 C-7.55621094 8.19650391 -7.55621094 8.19650391 -9.375 9.0625 C-10.55835938 9.63097656 -11.74171875 10.19945312 -12.9609375 10.78515625 C-13.96382812 11.18605469 -14.96671875 11.58695313 -16 12 C-16.66 11.67 -17.32 11.34 -18 11 C-13.339195 4.76852078 -9.68237548 2.35268625 -2.1875 0.1875 C-1.465625 0.125625 -0.74375 0.06375 0 0 Z " fill="#20682B" transform="translate(51,51)"/>
<path d="M0 0 C0.721875 0.00257812 1.44375 0.00515625 2.1875 0.0078125 C2.909375 0.00523438 3.63125 0.00265625 4.375 0 C6.1875 0.1328125 6.1875 0.1328125 7.1875 1.1328125 C7.25994053 3.15245449 7.27127188 5.17448374 7.25 7.1953125 C7.24097656 8.30003906 7.23195313 9.40476562 7.22265625 10.54296875 C7.21105469 11.39761719 7.19945313 12.25226562 7.1875 13.1328125 C6.76339844 12.74609375 6.33929688 12.359375 5.90234375 11.9609375 C1.88445194 8.3934028 -2.06653771 5.65107821 -6.8125 3.1328125 C-6.173125 2.8234375 -5.53375 2.5140625 -4.875 2.1953125 C-0.71524904 0.05241049 -0.71524904 0.05241049 0 0 Z " fill="#1C9944" transform="translate(87.8125,17.8671875)"/>
<path d="M0 0 C0.66 5.94 1.32 11.88 2 18 C-0.31 16.35 -2.62 14.7 -5 13 C-5 12.34 -5 11.68 -5 11 C-5.66 11 -6.32 11 -7 11 C-7.20086443 7.28400809 -7.1519437 6.22791555 -5 3 C-4.34 3 -3.68 3 -3 3 C-3 2.34 -3 1.68 -3 1 C-1 0 -1 0 0 0 Z " fill="#1C973F" transform="translate(49,140)"/>
<path d="M0 0 C0.66 0 1.32 0 2 0 C2.36351185 6.9067252 1.24791335 11.49325518 -2.5625 17.4375 C-3.2740625 18.2109375 -3.2740625 18.2109375 -4 19 C-4.66 19 -5.32 19 -6 19 C-6.33 17.02 -6.66 15.04 -7 13 C-6.34 13 -5.68 13 -5 13 C-4.8659375 12.42636719 -4.731875 11.85273437 -4.59375 11.26171875 C-4.01287221 9.04903296 -3.30337763 6.95350139 -2.5 4.8125 C-2.11328125 3.77029297 -2.11328125 3.77029297 -1.71875 2.70703125 C-1 1 -1 1 0 0 Z " fill="#216B2C" transform="translate(160,76)"/>
<path d="M0 0 C3.465 1.98 3.465 1.98 7 4 C7 4.66 7 5.32 7 6 C7.66 6 8.32 6 9 6 C8.67 8.31 8.34 10.62 8 13 C7.01 13.33 6.02 13.66 5 14 C5 14.66 5 15.32 5 16 C4.01 16.33 3.02 16.66 2 17 C1.34 11.39 0.68 5.78 0 0 Z " fill="#1C9740" transform="translate(138,33)"/>
<path d="M0 0 C2.25 1.0625 2.25 1.0625 3.5625 3.125 C3.9028125 4.0840625 3.9028125 4.0840625 4.25 5.0625 C4.91 5.0625 5.57 5.0625 6.25 5.0625 C6.25 5.7225 6.25 6.3825 6.25 7.0625 C5.34636719 7.19527344 4.44273438 7.32804687 3.51171875 7.46484375 C1.74248047 7.72974609 1.74248047 7.72974609 -0.0625 8 C-1.23425781 8.17402344 -2.40601563 8.34804688 -3.61328125 8.52734375 C-6.76641403 8.98343031 -6.76641403 8.98343031 -9.75 10.0625 C-9.52960279 6.20554875 -8.73453876 5.04633598 -6 2.1875 C-2.75 0.0625 -2.75 0.0625 0 0 Z " fill="#1C983F" transform="translate(42.75,41.9375)"/>
<path d="M0 0 C3.96 0 7.92 0 12 0 C11.0925 1.03125 10.185 2.0625 9.25 3.125 C6.54270734 6.27495425 4.22269007 9.49498873 2 13 C-0.92332269 8.61501596 -0.1356502 5.2225328 0 0 Z " fill="#1E9541" transform="translate(19,95)"/>
<path d="M0 0 C0.66 0.33 1.32 0.66 2 1 C2 2.32 2 3.64 2 5 C1.01 5.495 1.01 5.495 0 6 C0 6.99 0 7.98 0 9 C-3.97727273 13.88636364 -3.97727273 13.88636364 -7.8125 14.3125 C-8.534375 14.209375 -9.25625 14.10625 -10 14 C-9.125 8.25 -9.125 8.25 -8 6 C-7.34 6 -6.68 6 -6 6 C-6 5.34 -6 4.68 -6 4 C-4.03852126 2.61061923 -2.03833424 1.2739589 0 0 Z " fill="#7AA143" transform="translate(186,77)"/>
<path d="M0 0 C0.99 0.33 1.98 0.66 3 1 C3.97798721 4.79568461 3.92653069 7.5005999 3.0625 11.3125 C2.86785156 12.19550781 2.67320312 13.07851562 2.47265625 13.98828125 C2.31667969 14.65214844 2.16070312 15.31601563 2 16 C1.67 15.01 1.34 14.02 1 13 C-0.98 13 -2.96 13 -5 13 C-5 11.02 -5 9.04 -5 7 C-4.34 7 -3.68 7 -3 7 C-2.690625 6.030625 -2.38125 5.06125 -2.0625 4.0625 C-1 1 -1 1 0 0 Z " fill="#9BBC4A" transform="translate(176,61)"/>
<path d="M0 0 C2 1.375 2 1.375 4 3 C4 3.66 4 4.32 4 5 C4.66 5.66 5.32 6.32 6 7 C5.8125 9.5 5.8125 9.5 5 12 C4.01 12.66 3.02 13.32 2 14 C1.01 15.485 1.01 15.485 0 17 C-1.93852748 15.06147252 -1.4850032 11.65288119 -1.6875 9.0625 C-1.79449219 7.79535156 -1.90148438 6.52820313 -2.01171875 5.22265625 C-2 2 -2 2 0 0 Z " fill="#AEC54E" transform="translate(43,99)"/>
<path d="M0 0 C0.99 0.33 1.98 0.66 3 1 C3.38281159 6.23175837 2.21854707 9.37802694 0 14 C-0.66 14 -1.32 14 -2 14 C-2 13.34 -2 12.68 -2 12 C-3.32 12.33 -4.64 12.66 -6 13 C-6.42820102 9.36029133 -5.97413512 7.95430537 -4.125 4.6875 C-3.42375 3.800625 -2.7225 2.91375 -2 2 C-1.34 2 -0.68 2 0 2 C0 1.34 0 0.68 0 0 Z " fill="#8AAB41" transform="translate(58,111)"/>
<path d="M0 0 C0 0.66 0 1.32 0 2 C0.66 2.33 1.32 2.66 2 3 C0.32482761 6.53647504 -0.49280817 7.7911563 -4.1875 9.3125 C-5.5796875 9.6528125 -5.5796875 9.6528125 -7 10 C-7.45375 9.21625 -7.9075 8.4325 -8.375 7.625 C-9.88428742 4.96301969 -9.88428742 4.96301969 -12 3 C-8.2080182 0.81231819 -4.37268114 0 0 0 Z " fill="#3C863B" transform="translate(56,123)"/>
<path d="M0 0 C3 1 3 1 4.1875 3.0625 C4.455625 3.701875 4.72375 4.34125 5 5 C6.32 4.34 7.64 3.68 9 3 C8.67 5.64 8.34 8.28 8 11 C6.35 11.33 4.7 11.66 3 12 C3 11.01 3 10.02 3 9 C2.0409375 8.8453125 2.0409375 8.8453125 1.0625 8.6875 C0.381875 8.460625 -0.29875 8.23375 -1 8 C-1.33 7.01 -1.66 6.02 -2 5 C-1.34 5 -0.68 5 0 5 C-0.2784375 4.0409375 -0.2784375 4.0409375 -0.5625 3.0625 C-0.7790625 2.0415625 -0.7790625 2.0415625 -1 1 C-0.67 0.67 -0.34 0.34 0 0 Z " fill="#92B54D" transform="translate(132,122)"/>
<path d="M0 0 C2.57688169 4.42330873 2.14796678 7.9691294 2 13 C-1.63 13 -5.26 13 -9 13 C-8.67 12.34 -8.34 11.68 -8 11 C-7.34 11 -6.68 11 -6 11 C-6 10.34 -6 9.68 -6 9 C-5.34 9 -4.68 9 -4 9 C-3.71125 8.2575 -3.4225 7.515 -3.125 6.75 C-2.17697356 4.43260203 -1.15154089 2.22082885 0 0 Z " fill="#1E9943" transform="translate(168,82)"/>
<path d="M0 0 C2.5 1.3125 2.5 1.3125 5 3 C5 6 5 6 3.75 7.75 C2 9 2 9 -0.125 8.75 C-2 8 -2 8 -3 7 C-3.25 4.5625 -3.25 4.5625 -3 2 C-2.01 1.34 -1.02 0.68 0 0 Z " fill="#000000" transform="translate(94,111)"/>
<path d="M0 0 C2.375 0.25 2.375 0.25 5 1 C6.3125 3.0625 6.3125 3.0625 7 5 C6.34 5 5.68 5 5 5 C5 5.66 5 6.32 5 7 C3.02 7 1.04 7 -1 7 C-1.625 5.1875 -1.625 5.1875 -2 3 C-1.34 2.01 -0.68 1.02 0 0 Z " fill="#000000" transform="translate(110,81)"/>
<path d="M0 0 C1.98 0 3.96 0 6 0 C6.66 1.32 7.32 2.64 8 4 C6.25 5.5625 6.25 5.5625 4 7 C1.75 6.6875 1.75 6.6875 0 6 C-1.125 2.25 -1.125 2.25 0 0 Z " fill="#000000" transform="translate(109,102)"/>
<path d="M0 0 C0 1.98 0 3.96 0 6 C-1.99954746 6.04254356 -4.00041636 6.04080783 -6 6 C-7 5 -7 5 -7.0625 2.4375 C-7.041875 1.633125 -7.02125 0.82875 -7 0 C-4.3333581 -1.33332095 -2.83319697 -0.67102033 0 0 Z " fill="#000000" transform="translate(80,82)"/>
<path d="M0 0 C0.99 0 1.98 0 3 0 C5 3 5 3 4.625 5.6875 C4.41875 6.450625 4.2125 7.21375 4 8 C2.33388095 8.042721 0.66617115 8.04063832 -1 8 C-2 7 -2 7 -2.1875 4.5625 C-2 2 -2 2 0 0 Z " fill="#000000" transform="translate(93,70)"/>
<path d="M0 0 C1.4540625 0.0309375 1.4540625 0.0309375 2.9375 0.0625 C2.9375 2.0425 2.9375 4.0225 2.9375 6.0625 C-0.07281744 6.99673645 -0.92900268 7.10699911 -4.0625 6.0625 C-4.105221 4.39638095 -4.10313832 2.72867115 -4.0625 1.0625 C-3.0625 0.0625 -3.0625 0.0625 0 0 Z " fill="#000000" transform="translate(77.0625,101.9375)"/>
<path d="M0 0 C3.375 -0.1875 3.375 -0.1875 7 0 C7.66 0.99 8.32 1.98 9 3 C7.68 4.32 6.36 5.64 5 7 C2 6 2 6 0 3 C0 2.01 0 1.02 0 0 Z " fill="#458C40" transform="translate(40,32)"/>
<path d="M0 0 C1.65 0 3.3 0 5 0 C5.66 1.32 6.32 2.64 7 4 C5.75 5.5625 5.75 5.5625 4 7 C1.8125 6.6875 1.8125 6.6875 0 6 C0 4.02 0 2.04 0 0 Z " fill="#000000" transform="translate(105,115)"/>
<path d="M0 0 C1.65 0 3.3 0 5 0 C5.66 1.32 6.32 2.64 7 4 C6.01 4.99 5.02 5.98 4 7 C2.68 6.34 1.36 5.68 0 5 C0 3.35 0 1.7 0 0 Z " fill="#000000" transform="translate(118,92)"/>
<path d="M0 0 C2.97 0.495 2.97 0.495 6 1 C6 2.32 6 3.64 6 5 C5 6 5 6 2.4375 6.0625 C1.2309375 6.0315625 1.2309375 6.0315625 0 6 C-1.125 2.25 -1.125 2.25 0 0 Z " fill="#000000" transform="translate(105,69)"/>
<path d="M0 0 C-0.33 0.99 -0.66 1.98 -1 3 C-4.0625 4.1875 -4.0625 4.1875 -7 5 C-7.99 3.35 -8.98 1.7 -10 0 C-6.7169902 -1.6415049 -3.57454967 -0.51888624 0 0 Z " fill="#348237" transform="translate(137,137)"/>
<path d="M0 0 C1.98 0 3.96 0 6 0 C6.33 1.65 6.66 3.3 7 5 C5.35 5.66 3.7 6.32 2 7 C0 5 0 5 -0.125 2.375 C-0.08375 1.59125 -0.0425 0.8075 0 0 Z " fill="#000000" transform="translate(78,115)"/>
<path d="M0 0 C1.4540625 0.0309375 1.4540625 0.0309375 2.9375 0.0625 C2.625 1.9375 2.625 1.9375 1.9375 4.0625 C0.9475 4.7225 -0.0425 5.3825 -1.0625 6.0625 C-1.7225 7.0525 -2.3825 8.0425 -3.0625 9.0625 C-4.0625 8.0625 -4.0625 8.0625 -4.1875 4.5625 C-4.02748906 0.08219365 -4.02748906 0.08219365 0 0 Z " fill="#8EB34C" transform="translate(46.0625,106.9375)"/>
<path d="M0 0 C2.625 0.375 2.625 0.375 5 1 C4.67 2.65 4.34 4.3 4 6 C2.68 6 1.36 6 0 6 C-0.66 4.68 -1.32 3.36 -2 2 C-1.34 1.34 -0.68 0.68 0 0 Z " fill="#000000" transform="translate(66,92)"/>
<path d="M0 0 C3 1 3 1 5 4 C5.125 6.6875 5.125 6.6875 5 9 C3.68 9 2.36 9 1 9 C-0.4783226 6.04335481 -0.06032783 3.25770263 0 0 Z " fill="#9CBC4E" transform="translate(124,121)"/>
<path d="M0 0 C3.3 0 6.6 0 10 0 C10 0.66 10 1.32 10 2 C10.99 2.33 11.98 2.66 13 3 C12.67 3.66 12.34 4.32 12 5 C10.37247769 4.74476126 8.74796804 4.47025506 7.125 4.1875 C6.22007813 4.03667969 5.31515625 3.88585938 4.3828125 3.73046875 C2 3 2 3 0 0 Z " fill="#52953F" transform="translate(38,29)"/>
<path d="M0 0 C0.99 0.33 1.98 0.66 3 1 C3.33 3.31 3.66 5.62 4 8 C2.35 8 0.7 8 -1 8 C-1.33 7.01 -1.66 6.02 -2 5 C-1.34 5 -0.68 5 0 5 C-0.2784375 4.0409375 -0.2784375 4.0409375 -0.5625 3.0625 C-0.7790625 2.0415625 -0.7790625 2.0415625 -1 1 C-0.67 0.67 -0.34 0.34 0 0 Z " fill="#95B73F" transform="translate(132,122)"/>
<path d="M0 0 C1.98 0 3.96 0 6 0 C5.34 1.98 4.68 3.96 4 6 C2.35 5.67 0.7 5.34 -1 5 C-1 4.34 -1 3.68 -1 3 C-1.66 2.67 -2.32 2.34 -3 2 C-2.01 2 -1.02 2 0 2 C0 1.34 0 0.68 0 0 Z " fill="#307C33" transform="translate(14,89)"/>
<path d="M0 0 C1.65 0.33 3.3 0.66 5 1 C4.67 2.65 4.34 4.3 4 6 C2.35 5.67 0.7 5.34 -1 5 C-0.67 3.35 -0.34 1.7 0 0 Z " fill="#000000" transform="translate(79,69)"/>
<path d="M0 0 C1.32 0.66 2.64 1.32 4 2 C4 2.99 4 3.98 4 5 C2.35 5.33 0.7 5.66 -1 6 C-1.66 5.01 -2.32 4.02 -3 3 C-2.01 2.01 -1.02 1.02 0 0 Z " fill="#000000" transform="translate(93,124)"/>
<path d="M0 0 C0.99 0.66 1.98 1.32 3 2 C2.67 3.65 2.34 5.3 2 7 C0.68 7 -0.64 7 -2 7 C-2.6875 5.1875 -2.6875 5.1875 -3 3 C-1.5625 1.25 -1.5625 1.25 0 0 Z " fill="#000000" transform="translate(66,107)"/>
<path d="M0 0 C0.66 0.33 1.32 0.66 2 1 C2 5 2 5 0.625 6.75 C-1 8 -1 8 -3 8 C-3 7.34 -3 6.68 -3 6 C-3.66 6 -4.32 6 -5 6 C-3.63016497 2.83884224 -3.0109362 2.0072908 0 0 Z " fill="#A5C049" transform="translate(186,77)"/>
<path d="M0 0 C2.475 0.99 2.475 0.99 5 2 C4.34 3.32 3.68 4.64 3 6 C1.68 6 0.36 6 -1 6 C-1 5.34 -1 4.68 -1 4 C-1.66 3.67 -2.32 3.34 -3 3 C-2.01 2.01 -1.02 1.02 0 0 Z " fill="#000000" transform="translate(93,59)"/>
<path d="M0 0 C0.33 0.66 0.66 1.32 1 2 C2.98 2 4.96 2 7 2 C6.34 3.65 5.68 5.3 5 7 C4.34 7 3.68 7 3 7 C3 6.34 3 5.68 3 5 C1.68 5.33 0.36 5.66 -1 6 C-1.042721 4.33388095 -1.04063832 2.66617115 -1 1 C-0.67 0.67 -0.34 0.34 0 0 Z " fill="#6C9E3F" transform="translate(53,118)"/>
<path d="M0 0 C0 0.66 0 1.32 0 2 C0.66 2.33 1.32 2.66 2 3 C0.6875 5 0.6875 5 -1 7 C-1.99 7 -2.98 7 -4 7 C-4 5.02 -4 3.04 -4 1 C-2 0 -2 0 0 0 Z " fill="#448C3D" transform="translate(56,123)"/>
<path d="M0 0 C2.0625 0.4375 2.0625 0.4375 4 1 C3.67 2.65 3.34 4.3 3 6 C2.01 6 1.02 6 0 6 C-0.38218767 4.34385343 -0.71395102 2.67542976 -1 1 C-0.67 0.67 -0.34 0.34 0 0 Z " fill="#000000" transform="translate(121,108)"/>
<path d="M0 0 C1.67542976 0.28604898 3.34385343 0.61781233 5 1 C5 2.32 5 3.64 5 5 C3.35 5 1.7 5 0 5 C-0.5625 3.0625 -0.5625 3.0625 -1 1 C-0.67 0.67 -0.34 0.34 0 0 Z " fill="#000000" transform="translate(64,76)"/>
<path d="M0 0 C2 1.75 2 1.75 4 4 C4 5.32 4 6.64 4 8 C2.68 8 1.36 8 0 8 C0 5.36 0 2.72 0 0 Z " fill="#A0BC50" transform="translate(13,73)"/>
<path d="M0 0 C2.86724686 0.57344937 3.8614515 0.8614515 6 3 C4 5 4 5 1.375 5.125 C0.59125 5.08375 -0.1925 5.0425 -1 5 C-0.67 3.35 -0.34 1.7 0 0 Z " fill="#599841" transform="translate(177,86)"/>
<path d="M0 0 C0.33 0 0.66 0 1 0 C1 2.97 1 5.94 1 9 C1.99 9.33 2.98 9.66 4 10 C2.02 10.99 2.02 10.99 0 12 C-1.53166168 7.91556885 -0.63081652 4.20544343 0 0 Z " fill="#7FB133" transform="translate(99,24)"/>
<path d="M0 0 C-3.47325181 1.1577506 -6.36067448 1.06866652 -10 1 C-10.33 0.01 -10.66 -0.98 -11 -2 C-6.38619749 -3.49270081 -4.10342037 -2.38570952 0 0 Z " fill="#519241" transform="translate(137,136)"/>
<path d="M0 0 C0 1.65 0 3.3 0 5 C-1.98 5.66 -3.96 6.32 -6 7 C-3.60526316 0 -3.60526316 0 0 0 Z " fill="#509141" transform="translate(51,119)"/>
<path d="M0 0 C1.98 0.495 1.98 0.495 4 1 C4 2.32 4 3.64 4 5 C2.35 5 0.7 5 -1 5 C-0.67 3.35 -0.34 1.7 0 0 Z " fill="#000000" transform="translate(121,76)"/>
<path d="M0 0 C0.99 0.66 1.98 1.32 3 2 C3 2.99 3 3.98 3 5 C2.34 5 1.68 5 1 5 C1 5.66 1 6.32 1 7 C0.01 6.67 -0.98 6.34 -2 6 C-1.125 1.125 -1.125 1.125 0 0 Z " fill="#ACC251" transform="translate(39,17)"/>
<path d="M0 0 C0.33 0.99 0.66 1.98 1 3 C0.34 3 -0.32 3 -1 3 C-1 3.66 -1 4.32 -1 5 C-3.5 6.625 -3.5 6.625 -6 8 C-6.33 7.01 -6.66 6.02 -7 5 C-4.69 3.35 -2.38 1.7 0 0 Z " fill="#97CE47" transform="translate(43,137)"/>
<path d="M0 0 C-0.33 1.32 -0.66 2.64 -1 4 C-3.31 4 -5.62 4 -8 4 C-6.07740436 0.15480872 -4.12054651 0 0 0 Z " fill="#479531" transform="translate(66,25)"/>
<path d="M0 0 C1.65 0.33 3.3 0.66 5 1 C4.67 1.99 4.34 2.98 4 4 C2.35 3.67 0.7 3.34 -1 3 C-0.67 2.01 -0.34 1.02 0 0 Z " fill="#000000" transform="translate(110,124)"/>
<path d="M0 0 C1.65 0.33 3.3 0.66 5 1 C4.67 1.99 4.34 2.98 4 4 C2.35 3.67 0.7 3.34 -1 3 C-0.67 2.01 -0.34 1.02 0 0 Z " fill="#000000" transform="translate(74,124)"/>
<path d="M0 0 C1.65 0.33 3.3 0.66 5 1 C4.67 1.99 4.34 2.98 4 4 C2.35 3.67 0.7 3.34 -1 3 C-0.67 2.01 -0.34 1.02 0 0 Z " fill="#000000" transform="translate(56,93)"/>
<path d="M0 0 C0 1.98 0 3.96 0 6 C-0.66 5.01 -1.32 4.02 -2 3 C-2.928125 3.99 -2.928125 3.99 -3.875 5 C-6 7 -6 7 -8 7 C-6.92585241 3.77755723 -3.84707198 0 0 0 Z " fill="#5FA841" transform="translate(30,67)"/>
<path d="M0 0 C1.32 0.66 2.64 1.32 4 2 C3.67 2.99 3.34 3.98 3 5 C1.68 5 0.36 5 -1 5 C-0.67 3.35 -0.34 1.7 0 0 Z " fill="#000000" transform="translate(75,61)"/>
<path d="M0 0 C0.99 0.33 1.98 0.66 3 1 C1.515 3.475 1.515 3.475 0 6 C-0.99 5.67 -1.98 5.34 -3 5 C-1.125 1.125 -1.125 1.125 0 0 Z " fill="#9FBC4D" transform="translate(53,23)"/>
<path d="M0 0 C0.763125 0.61875 1.52625 1.2375 2.3125 1.875 C4.99625809 4.05597052 4.99625809 4.05597052 8 6 C7.01 6.495 7.01 6.495 6 7 C4.0546875 6.00390625 4.0546875 6.00390625 1.875 4.5625 C1.15054688 4.08941406 0.42609375 3.61632812 -0.3203125 3.12890625 C-0.87460938 2.75636719 -1.42890625 2.38382813 -2 2 C-1.34 1.34 -0.68 0.68 0 0 Z " fill="#5A9732" transform="translate(69,163)"/>
<path d="M0 0 C0.99 0.33 1.98 0.66 3 1 C2.34 2.65 1.68 4.3 1 6 C0.01 6 -0.98 6 -2 6 C-2 4.68 -2 3.36 -2 2 C-1.34 2 -0.68 2 0 2 C0 1.34 0 0.68 0 0 Z " fill="#A8C24C" transform="translate(58,111)"/>
<path d="M0 0 C-0.99 1.485 -0.99 1.485 -2 3 C-4.625 3.1875 -4.625 3.1875 -7 3 C-7 2.01 -7 1.02 -7 0 C-4.3333581 -1.33332095 -2.83319697 -0.67102033 0 0 Z " fill="#A1BC4C" transform="translate(49,105)"/>
<path d="M0 0 C1.98 0 3.96 0 6 0 C6.33 0.99 6.66 1.98 7 3 C6.34 3.66 5.68 4.32 5 5 C2 4 2 4 0.8125 1.9375 C0.544375 1.298125 0.27625 0.65875 0 0 Z " fill="#2F7C34" transform="translate(40,34)"/>
<path d="M0 0 C1.32 0.66 2.64 1.32 4 2 C3.01 2.99 2.02 3.98 1 5 C-0.32 4.34 -1.64 3.68 -3 3 C-2.01 2.01 -1.02 1.02 0 0 Z " fill="#237D2E" transform="translate(102,152)"/>
<path d="M0 0 C1.98 0.66 3.96 1.32 6 2 C5.67 2.66 5.34 3.32 5 4 C2.03 3.67 -0.94 3.34 -4 3 C-2.68 2.67 -1.36 2.34 0 2 C0 1.34 0 0.68 0 0 Z " fill="#73A649" transform="translate(129,128)"/>
<path d="M0 0 C0.33 0.66 0.66 1.32 1 2 C3.02463255 2.65213292 3.02463255 2.65213292 5 3 C3.02 3.66 1.04 4.32 -1 5 C-1.66 4.01 -2.32 3.02 -3 2 C-2.01 1.34 -1.02 0.68 0 0 Z " fill="#20702D" transform="translate(50,128)"/>
<path d="M0 0 C0.66 0 1.32 0 2 0 C2.33 1.32 2.66 2.64 3 4 C0.525 5.485 0.525 5.485 -2 7 C-1.125 2.25 -1.125 2.25 0 0 Z " fill="#23802F" transform="translate(34,100)"/>
<path d="M0 0 C2.86724686 0.57344937 3.8614515 0.8614515 6 3 C4.02 3.99 4.02 3.99 2 5 C1.34 3.35 0.68 1.7 0 0 Z " fill="#97B94D" transform="translate(7,84)"/>
<path d="M0 0 C0.99 0.33 1.98 0.66 3 1 C3 2.32 3 3.64 3 5 C1.68 5 0.36 5 -1 5 C-0.67 3.35 -0.34 1.7 0 0 Z " fill="#000000" transform="translate(111,61)"/>
<path d="M0 0 C2.475 0.495 2.475 0.495 5 1 C4.67 1.99 4.34 2.98 4 4 C2.68 4 1.36 4 0 4 C0 2.68 0 1.36 0 0 Z " fill="#000000" transform="translate(128,93)"/>
<path d="M0 0 C1.65 0 3.3 0 5 0 C5.33 0.99 5.66 1.98 6 3 C4.02 3 2.04 3 0 3 C0 2.01 0 1.02 0 0 Z " fill="#7EA846" transform="translate(13,81)"/>
<path d="M0 0 C1.98 0 3.96 0 6 0 C6 0.66 6 1.32 6 2 C6.99 2.33 7.98 2.66 9 3 C8.67 3.66 8.34 4.32 8 5 C7.01 4.67 6.02 4.34 5 4 C4.67 3.34 4.34 2.68 4 2 C1.98330173 0.86649466 1.98330173 0.86649466 0 0 Z " fill="#609B45" transform="translate(42,29)"/>
<path d="" fill="#008000" transform="translate(0,0)"/>
<path d="" fill="#000000" transform="translate(0,0)"/>
<path d="" fill="#000000" transform="translate(0,0)"/>
<path d="" fill="#808000" transform="translate(0,0)"/>
<path d="" fill="#008000" transform="translate(0,0)"/>
<path d="" fill="#808000" transform="translate(0,0)"/>
</svg>
